<?xml version="1.0" encoding="UTF-8" standalone="no"?>
<!DOCTYPE svg PUBLIC "-//W3C//DTD SVG 1.1//EN"
 "http://www.w3.org/Graphics/SVG/1.1/DTD/svg11.dtd">
<!-- Generated by graphviz version 2.40.1 (20161225.0304)
 -->
<!-- Title: %3 Pages: 1 -->
<svg width="466px" height="476px"
 viewBox="0.00 0.00 466.00 476.00" xmlns="http://www.w3.org/2000/svg" xmlns:xlink="http://www.w3.org/1999/xlink">
<g id="graph0" class="graph" transform="scale(1 1) rotate(0) translate(4 472)">
<title>%3</title>
<polygon fill="none" stroke="transparent" points="-4,4 -4,-472 462,-472 462,4 -4,4"/>
<!-- 0x7fffe8caf010 -->
<g id="node1" class="node">
<title>0x7fffe8caf010</title>
<polygon fill="none" stroke="#000000" points="169,-442 169,-463 196,-463 196,-442 169,-442"/>
<text text-anchor="start" x="172" y="-448.8" font-family="Times,serif" font-size="12" fill="#000000">☑ a</text>
<polygon fill="none" stroke="#000000" points="169,-436 169,-442 179,-442 179,-436 169,-436"/>
<polygon fill="none" stroke="#000000" points="179,-436 179,-442 187,-442 187,-436 179,-436"/>
<polygon fill="none" stroke="#000000" points="187,-436 187,-442 196,-442 196,-436 187,-436"/>
</g>
<!-- 0x7fd281a21078 -->
<g id="node2" class="node">
<title>0x7fd281a21078</title>
<polygon fill="none" stroke="#000000" points="115,-370 115,-391 143,-391 143,-370 115,-370"/>
<text text-anchor="start" x="118" y="-376.8" font-family="Times,serif" font-size="12" fill="#000000">☑ b</text>
<polygon fill="none" stroke="#000000" points="115,-364 115,-370 126,-370 126,-364 115,-364"/>
<polygon fill="none" stroke="#000000" points="126,-364 126,-370 134,-370 134,-364 126,-364"/>
<polygon fill="none" stroke="#000000" points="134,-364 134,-370 143,-370 143,-364 134,-364"/>
</g>
<!-- 0x7fffe8caf010&#45;&gt;0x7fd281a21078 -->
<g id="edge1" class="edge">
<title>0x7fffe8caf010:m&#45;&gt;0x7fd281a21078</title>
<path fill="none" stroke="#000000" stroke-width="2" d="M183,-436C183,-421.9399 174.3945,-409.8625 164.0542,-400.4254"/>
<polygon fill="#000000" stroke="#000000" stroke-width="2" points="166.2541,-397.7029 156.3164,-394.0297 161.7945,-403.0985 166.2541,-397.7029"/>
</g>
<!-- 0x7fd281a21080 -->
<g id="node3" class="node">
<title>0x7fd281a21080</title>
<polygon fill="none" stroke="#000000" points="232,-370 232,-391 260,-391 260,-370 232,-370"/>
<text text-anchor="start" x="235" y="-376.8" font-family="Times,serif" font-size="12" fill="#000000">☑ b</text>
<polygon fill="none" stroke="#000000" points="232,-364 232,-370 243,-370 243,-364 232,-364"/>
<polygon fill="none" stroke="#000000" points="243,-364 243,-370 251,-370 251,-364 243,-364"/>
<polygon fill="none" stroke="#000000" points="251,-364 251,-370 260,-370 260,-364 251,-364"/>
</g>
<!-- 0x7fffe8caf010&#45;&gt;0x7fd281a21080 -->
<g id="edge2" class="edge">
<title>0x7fffe8caf010:r&#45;&gt;0x7fd281a21080</title>
<path fill="none" stroke="#000000" d="M196,-439C214.6582,-439 227.6193,-421.7188 235.6622,-405.5526"/>
<polygon fill="#000000" stroke="#000000" points="238.9135,-406.8567 239.8353,-396.302 232.5327,-403.9782 238.9135,-406.8567"/>
</g>
<!-- 0x7fd281a210a0 -->
<g id="node4" class="node">
<title>0x7fd281a210a0</title>
<polygon fill="none" stroke="#000000" points="14,-298 14,-319 41,-319 41,-298 14,-298"/>
<text text-anchor="start" x="17" y="-304.8" font-family="Times,serif" font-size="12" fill="#000000">☑ a</text>
<polygon fill="none" stroke="#000000" points="14,-292 14,-298 24,-298 24,-292 14,-292"/>
<polygon fill="none" stroke="#000000" points="24,-292 24,-298 32,-298 32,-292 24,-292"/>
<polygon fill="none" stroke="#000000" points="32,-292 32,-298 41,-298 41,-292 32,-292"/>
</g>
<!-- 0x7fd281a21078&#45;&gt;0x7fd281a210a0 -->
<g id="edge3" class="edge">
<title>0x7fd281a21078:l&#45;&gt;0x7fd281a210a0</title>
<path fill="none" stroke="#000000" d="M115,-367C88.7236,-367 64.6355,-348.4026 48.3302,-331.7452"/>
<polygon fill="#000000" stroke="#000000" points="50.78,-329.24 41.4063,-324.302 45.6547,-334.0078 50.78,-329.24"/>
</g>
<!-- 0x7fd281a210a8 -->
<g id="node5" class="node">
<title>0x7fd281a210a8</title>
<polygon fill="none" stroke="#000000" points="86,-298 86,-319 113,-319 113,-298 86,-298"/>
<text text-anchor="start" x="89" y="-304.8" font-family="Times,serif" font-size="12" fill="#000000">☑ a</text>
<polygon fill="none" stroke="#000000" points="86,-292 86,-298 96,-298 96,-292 86,-292"/>
<polygon fill="none" stroke="#000000" points="96,-292 96,-298 104,-298 104,-292 96,-292"/>
<polygon fill="none" stroke="#000000" points="104,-292 104,-298 113,-298 113,-292 104,-292"/>
</g>
<!-- 0x7fd281a21078&#45;&gt;0x7fd281a210a8 -->
<g id="edge4" class="edge">
<title>0x7fd281a21078:m&#45;&gt;0x7fd281a210a8</title>
<path fill="none" stroke="#000000" stroke-width="2" d="M130,-364C130,-352.925 125.5493,-341.9158 120.0208,-332.5124"/>
<polygon fill="#000000" stroke="#000000" stroke-width="2" points="122.8916,-330.507 114.5,-324.0392 117.0266,-334.3284 122.8916,-330.507"/>
</g>
<!-- 0x7fd281a210b0 -->
<g id="node6" class="node">
<title>0x7fd281a210b0</title>
<polygon fill="none" stroke="#000000" points="158,-298 158,-319 185,-319 185,-298 158,-298"/>
<text text-anchor="start" x="161" y="-304.8" font-family="Times,serif" font-size="12" fill="#000000">☑ c</text>
<polygon fill="none" stroke="#000000" points="158,-292 158,-298 168,-298 168,-292 158,-292"/>
<polygon fill="none" stroke="#000000" points="168,-292 168,-298 176,-298 176,-292 168,-292"/>
<polygon fill="none" stroke="#000000" points="176,-292 176,-298 185,-298 185,-292 176,-292"/>
</g>
<!-- 0x7fd281a21078&#45;&gt;0x7fd281a210b0 -->
<g id="edge5" class="edge">
<title>0x7fd281a21078:r&#45;&gt;0x7fd281a210b0</title>
<path fill="none" stroke="#000000" d="M139,-364C139,-352.9318 143.5227,-341.9883 149.1676,-332.6399"/>
<polygon fill="#000000" stroke="#000000" points="152.1544,-334.4699 154.8125,-324.2139 146.3389,-330.5738 152.1544,-334.4699"/>
</g>
<!-- 0x7fd281a21108 -->
<g id="node11" class="node">
<title>0x7fd281a21108</title>
<polygon fill="none" stroke="#000000" points="234,-298 234,-319 261,-319 261,-298 234,-298"/>
<text text-anchor="start" x="237" y="-304.8" font-family="Times,serif" font-size="12" fill="#000000">☑ c</text>
<polygon fill="none" stroke="#000000" points="234,-292 234,-298 244,-298 244,-292 234,-292"/>
<polygon fill="none" stroke="#000000" points="244,-292 244,-298 252,-298 252,-292 244,-292"/>
<polygon fill="none" stroke="#000000" points="252,-292 252,-298 261,-298 261,-292 252,-292"/>
</g>
<!-- 0x7fd281a21080&#45;&gt;0x7fd281a21108 -->
<g id="edge10" class="edge">
<title>0x7fd281a21080:m&#45;&gt;0x7fd281a21108</title>
<path fill="none" stroke="#000000" stroke-width="2" d="M247,-364C247,-354.2696 247,-343.621 247,-334.1338"/>
<polygon fill="#000000" stroke="#000000" stroke-width="2" points="250.5001,-334.0267 247,-324.0268 243.5001,-334.0268 250.5001,-334.0267"/>
</g>
<!-- 0x7fd281a21110 -->
<g id="node12" class="node">
<title>0x7fd281a21110</title>
<polygon fill="none" stroke="#000000" points="306,-298 306,-319 333,-319 333,-298 306,-298"/>
<text text-anchor="start" x="309" y="-304.8" font-family="Times,serif" font-size="12" fill="#000000">☑ c</text>
<polygon fill="none" stroke="#000000" points="306,-292 306,-298 316,-298 316,-292 306,-292"/>
<polygon fill="none" stroke="#000000" points="316,-292 316,-298 324,-298 324,-292 316,-292"/>
<polygon fill="none" stroke="#000000" points="324,-292 324,-298 333,-298 333,-292 324,-292"/>
</g>
<!-- 0x7fd281a21080&#45;&gt;0x7fd281a21110 -->
<g id="edge11" class="edge">
<title>0x7fd281a21080:r&#45;&gt;0x7fd281a21110</title>
<path fill="none" stroke="#000000" d="M260,-367C280.2631,-367 295.7827,-349.3943 305.8072,-333.0996"/>
<polygon fill="#000000" stroke="#000000" points="308.9088,-334.7256 310.8063,-324.302 302.8228,-331.2672 308.9088,-334.7256"/>
</g>
<!-- 0x7fd281a213a8 -->
<g id="node7" class="node">
<title>0x7fd281a213a8</title>
<polygon fill="none" stroke="#000000" points="14,-226 14,-247 42,-247 42,-226 14,-226"/>
<text text-anchor="start" x="17" y="-232.8" font-family="Times,serif" font-size="12" fill="#000000">☑ b</text>
<polygon fill="none" stroke="#000000" points="14,-220 14,-226 25,-226 25,-220 14,-220"/>
<polygon fill="none" stroke="#000000" points="25,-220 25,-226 33,-226 33,-220 25,-220"/>
<polygon fill="none" stroke="#000000" points="33,-220 33,-226 42,-226 42,-220 33,-220"/>
</g>
<!-- 0x7fd281a210a0&#45;&gt;0x7fd281a213a8 -->
<g id="edge6" class="edge">
<title>0x7fd281a210a0:m&#45;&gt;0x7fd281a213a8</title>
<path fill="none" stroke="#000000" stroke-width="2" d="M28,-292C28,-282.2696 28,-271.621 28,-262.1338"/>
<polygon fill="#000000" stroke="#000000" stroke-width="2" points="31.5001,-262.0267 28,-252.0268 24.5001,-262.0268 31.5001,-262.0267"/>
</g>
<!-- 0x7fd281a210e0 -->
<g id="node8" class="node">
<title>0x7fd281a210e0</title>
<polygon fill="none" stroke="#000000" points="87,-226 87,-247 114,-247 114,-226 87,-226"/>
<text text-anchor="start" x="90" y="-232.8" font-family="Times,serif" font-size="12" fill="#000000">☑ c</text>
<polygon fill="none" stroke="#000000" points="87,-220 87,-226 97,-226 97,-220 87,-220"/>
<polygon fill="none" stroke="#000000" points="97,-220 97,-226 105,-226 105,-220 97,-220"/>
<polygon fill="none" stroke="#000000" points="105,-220 105,-226 114,-226 114,-220 105,-220"/>
</g>
<!-- 0x7fd281a210a8&#45;&gt;0x7fd281a210e0 -->
<g id="edge7" class="edge">
<title>0x7fd281a210a8:r&#45;&gt;0x7fd281a210e0</title>
<path fill="none" stroke="#000000" d="M109,-292C109,-282.2272 107.7368,-271.6365 106.157,-262.2124"/>
<polygon fill="#000000" stroke="#000000" points="109.5594,-261.3647 104.2891,-252.1737 102.6775,-262.6452 109.5594,-261.3647"/>
</g>
<!-- 0x7fd281a21168 -->
<g id="node10" class="node">
<title>0x7fd281a21168</title>
<polygon fill="none" stroke="#000000" points="159,-226 159,-247 186,-247 186,-226 159,-226"/>
<text text-anchor="start" x="162" y="-232.8" font-family="Times,serif" font-size="12" fill="#000000">☑ a</text>
<polygon fill="none" stroke="#000000" points="159,-220 159,-226 169,-226 169,-220 159,-220"/>
<polygon fill="none" stroke="#000000" points="169,-220 169,-226 177,-226 177,-220 169,-220"/>
<polygon fill="none" stroke="#000000" points="177,-220 177,-226 186,-226 186,-220 177,-220"/>
</g>
<!-- 0x7fd281a210b0&#45;&gt;0x7fd281a21168 -->
<g id="edge9" class="edge">
<title>0x7fd281a210b0:m&#45;&gt;0x7fd281a21168</title>
<path fill="none" stroke="#000000" stroke-width="2" d="M172,-292C172,-282.2696 172,-271.621 172,-262.1338"/>
<polygon fill="#000000" stroke="#000000" stroke-width="2" points="175.5001,-262.0267 172,-252.0268 168.5001,-262.0268 175.5001,-262.0267"/>
</g>
<!-- 0x7fd281a21190 -->
<g id="node9" class="node">
<title>0x7fd281a21190</title>
<polygon fill="none" stroke="#000000" points="78,-154 78,-175 106,-175 106,-154 78,-154"/>
<text text-anchor="start" x="81" y="-160.8" font-family="Times,serif" font-size="12" fill="#000000">☑ b</text>
<polygon fill="none" stroke="#000000" points="78,-148 78,-154 89,-154 89,-148 78,-148"/>
<polygon fill="none" stroke="#000000" points="89,-148 89,-154 97,-154 97,-148 89,-148"/>
<polygon fill="none" stroke="#000000" points="97,-148 97,-154 106,-154 106,-148 97,-148"/>
</g>
<!-- 0x7fd281a210e0&#45;&gt;0x7fd281a21190 -->
<g id="edge8" class="edge">
<title>0x7fd281a210e0:l&#45;&gt;0x7fd281a21190</title>
<path fill="none" stroke="#000000" d="M92,-220C92,-210.2696 92,-199.621 92,-190.1338"/>
<polygon fill="#000000" stroke="#000000" points="95.5001,-190.0267 92,-180.0268 88.5001,-190.0268 95.5001,-190.0267"/>
</g>
<!-- 0x7fd281a21130 -->
<g id="node13" class="node">
<title>0x7fd281a21130</title>
<polygon fill="none" stroke="#000000" points="231,-226 231,-247 258,-247 258,-226 231,-226"/>
<text text-anchor="start" x="234" y="-232.8" font-family="Times,serif" font-size="12" fill="#000000">☐ a</text>
<polygon fill="none" stroke="#000000" points="231,-220 231,-226 241,-226 241,-220 231,-220"/>
<polygon fill="none" stroke="#000000" points="241,-220 241,-226 249,-226 249,-220 241,-220"/>
<polygon fill="none" stroke="#000000" points="249,-220 249,-226 258,-226 258,-220 249,-220"/>
</g>
<!-- 0x7fd281a21108&#45;&gt;0x7fd281a21130 -->
<g id="edge12" class="edge">
<title>0x7fd281a21108:l&#45;&gt;0x7fd281a21130</title>
<path fill="none" stroke="#000000" d="M239,-292C239,-282.307 239.7018,-271.7363 240.5795,-262.3059"/>
<polygon fill="#000000" stroke="#000000" points="244.072,-262.5574 241.6171,-252.2509 237.109,-261.8388 244.072,-262.5574"/>
</g>
<!-- 0x7fd281a211f8 -->
<g id="node15" class="node">
<title>0x7fd281a211f8</title>
<polygon fill="none" stroke="#000000" points="307,-226 307,-247 334,-247 334,-226 307,-226"/>
<text text-anchor="start" x="310" y="-232.8" font-family="Times,serif" font-size="12" fill="#000000">☐ a</text>
<polygon fill="none" stroke="#000000" points="307,-220 307,-226 317,-226 317,-220 307,-220"/>
<polygon fill="none" stroke="#000000" points="317,-220 317,-226 325,-226 325,-220 317,-220"/>
<polygon fill="none" stroke="#000000" points="325,-220 325,-226 334,-226 334,-220 325,-220"/>
</g>
<!-- 0x7fd281a21110&#45;&gt;0x7fd281a211f8 -->
<g id="edge14" class="edge">
<title>0x7fd281a21110:m&#45;&gt;0x7fd281a211f8</title>
<path fill="none" stroke="#000000" stroke-width="2" d="M320,-292C320,-282.2696 320,-271.621 320,-262.1338"/>
<polygon fill="#000000" stroke="#000000" stroke-width="2" points="323.5001,-262.0267 320,-252.0268 316.5001,-262.0268 323.5001,-262.0267"/>
</g>
<!-- 0x7fd281a212e8 -->
<g id="node14" class="node">
<title>0x7fd281a212e8</title>
<polygon fill="none" stroke="#000000" points="232,-154 232,-175 259,-175 259,-154 232,-154"/>
<text text-anchor="start" x="235" y="-160.8" font-family="Times,serif" font-size="12" fill="#000000">☑ c</text>
<polygon fill="none" stroke="#000000" points="232,-148 232,-154 242,-154 242,-148 232,-148"/>
<polygon fill="none" stroke="#000000" points="242,-148 242,-154 250,-154 250,-148 242,-148"/>
<polygon fill="none" stroke="#000000" points="250,-148 250,-154 259,-154 259,-148 250,-148"/>
</g>
<!-- 0x7fd281a21130&#45;&gt;0x7fd281a212e8 -->
<g id="edge13" class="edge">
<title>0x7fd281a21130:m&#45;&gt;0x7fd281a212e8</title>
<path fill="none" stroke="#000000" stroke-width="2" d="M245,-220C245,-210.2696 245,-199.621 245,-190.1338"/>
<polygon fill="#000000" stroke="#000000" stroke-width="2" points="248.5001,-190.0267 245,-180.0268 241.5001,-190.0268 248.5001,-190.0267"/>
</g>
<!-- 0x7fd281a21228 -->
<g id="node16" class="node">
<title>0x7fd281a21228</title>
<polygon fill="none" stroke="#000000" points="304,-154 304,-175 331,-175 331,-154 304,-154"/>
<text text-anchor="start" x="307" y="-160.8" font-family="Times,serif" font-size="12" fill="#000000">☑ a</text>
<polygon fill="none" stroke="#000000" points="304,-148 304,-154 314,-154 314,-148 304,-148"/>
<polygon fill="none" stroke="#000000" points="314,-148 314,-154 322,-154 322,-148 314,-148"/>
<polygon fill="none" stroke="#000000" points="322,-148 322,-154 331,-154 331,-148 322,-148"/>
</g>
<!-- 0x7fd281a211f8&#45;&gt;0x7fd281a21228 -->
<g id="edge15" class="edge">
<title>0x7fd281a211f8:m&#45;&gt;0x7fd281a21228</title>
<path fill="none" stroke="#000000" stroke-width="2" d="M321,-220C321,-210.2465 320.4301,-199.5922 319.7205,-190.1069"/>
<polygon fill="#000000" stroke="#000000" stroke-width="2" points="323.1973,-189.6813 318.8829,-180.0047 316.2212,-190.2598 323.1973,-189.6813"/>
</g>
<!-- 0x7fd281a21230 -->
<g id="node17" class="node">
<title>0x7fd281a21230</title>
<polygon fill="none" stroke="#000000" points="375,-154 375,-175 403,-175 403,-154 375,-154"/>
<text text-anchor="start" x="378" y="-160.8" font-family="Times,serif" font-size="12" fill="#000000">☐ b</text>
<polygon fill="none" stroke="#000000" points="375,-148 375,-154 386,-154 386,-148 375,-148"/>
<polygon fill="none" stroke="#000000" points="386,-148 386,-154 394,-154 394,-148 386,-148"/>
<polygon fill="none" stroke="#000000" points="394,-148 394,-154 403,-154 403,-148 394,-148"/>
</g>
<!-- 0x7fd281a211f8&#45;&gt;0x7fd281a21230 -->
<g id="edge16" class="edge">
<title>0x7fd281a211f8:r&#45;&gt;0x7fd281a21230</title>
<path fill="none" stroke="#000000" d="M334,-223C353.4295,-223 367.7574,-205.7188 376.9101,-189.5526"/>
<polygon fill="#000000" stroke="#000000" points="380.2099,-190.7915 381.7005,-180.302 373.9939,-187.5725 380.2099,-190.7915"/>
</g>
<!-- 0x7fd281a21288 -->
<g id="node18" class="node">
<title>0x7fd281a21288</title>
<polygon fill="none" stroke="#000000" points="345,-82 345,-103 372,-103 372,-82 345,-82"/>
<text text-anchor="start" x="348" y="-88.8" font-family="Times,serif" font-size="12" fill="#000000">☑ c</text>
<polygon fill="none" stroke="#000000" points="345,-76 345,-82 355,-82 355,-76 345,-76"/>
<polygon fill="none" stroke="#000000" points="355,-76 355,-82 363,-82 363,-76 355,-76"/>
<polygon fill="none" stroke="#000000" points="363,-76 363,-82 372,-82 372,-76 363,-76"/>
</g>
<!-- 0x7fd281a21230&#45;&gt;0x7fd281a21288 -->
<g id="edge17" class="edge">
<title>0x7fd281a21230:m&#45;&gt;0x7fd281a21288</title>
<path fill="none" stroke="#000000" stroke-width="2" d="M390,-148C390,-136.9318 385.4773,-125.9883 379.8324,-116.6399"/>
<polygon fill="#000000" stroke="#000000" stroke-width="2" points="382.6611,-114.5738 374.1875,-108.2139 376.8456,-118.4699 382.6611,-114.5738"/>
</g>
<!-- 0x7fd281a21290 -->
<g id="node19" class="node">
<title>0x7fd281a21290</title>
<polygon fill="none" stroke="#000000" points="417,-82 417,-103 444,-103 444,-82 417,-82"/>
<text text-anchor="start" x="420" y="-88.8" font-family="Times,serif" font-size="12" fill="#000000">☐ c</text>
<polygon fill="none" stroke="#000000" points="417,-76 417,-82 427,-82 427,-76 417,-76"/>
<polygon fill="none" stroke="#000000" points="427,-76 427,-82 435,-82 435,-76 427,-76"/>
<polygon fill="none" stroke="#000000" points="435,-76 435,-82 444,-82 444,-76 435,-76"/>
</g>
<!-- 0x7fd281a21230&#45;&gt;0x7fd281a21290 -->
<g id="edge18" class="edge">
<title>0x7fd281a21230:r&#45;&gt;0x7fd281a21290</title>
<path fill="none" stroke="#000000" d="M399,-148C399,-136.925 403.4507,-125.9158 408.9792,-116.5124"/>
<polygon fill="#000000" stroke="#000000" points="411.9734,-118.3284 414.5,-108.0392 406.1084,-114.507 411.9734,-118.3284"/>
</g>
<!-- 0x7fd281a21348 -->
<g id="node20" class="node">
<title>0x7fd281a21348</title>
<polygon fill="none" stroke="#000000" points="418,-10 418,-31 445,-31 445,-10 418,-10"/>
<text text-anchor="start" x="421" y="-16.8" font-family="Times,serif" font-size="12" fill="#000000">☑ a</text>
<polygon fill="none" stroke="#000000" points="418,-4 418,-10 428,-10 428,-4 418,-4"/>
<polygon fill="none" stroke="#000000" points="428,-4 428,-10 436,-10 436,-4 428,-4"/>
<polygon fill="none" stroke="#000000" points="436,-4 436,-10 445,-10 445,-4 436,-4"/>
</g>
<!-- 0x7fd281a21290&#45;&gt;0x7fd281a21348 -->
<g id="edge19" class="edge">
<title>0x7fd281a21290:m&#45;&gt;0x7fd281a21348</title>
<path fill="none" stroke="#000000" stroke-width="2" d="M431,-76C431,-66.2696 431,-55.621 431,-46.1338"/>
<polygon fill="#000000" stroke="#000000" stroke-width="2" points="434.5001,-46.0267 431,-36.0268 427.5001,-46.0268 434.5001,-46.0267"/>
</g>
</g>
</svg>
